<svg version="1.1" id="Layer_1" xmlns="http://www.w3.org/2000/svg" xmlns:xlink="http://www.w3.org/1999/xlink" x="0px" y="0px"
	 width="100%" viewBox="0 0 334 173" enable-background="new 0 0 334 173" xml:space="preserve">
<path fill="#FEFEFE" opacity="1.000000" stroke="none" 
	d="
M249.000000,174.000000 
	C166.000015,174.000000 83.500038,174.000000 1.000044,174.000000 
	C1.000030,116.333366 1.000030,58.666733 1.000015,1.000075 
	C112.333275,1.000050 223.666550,1.000050 334.999878,1.000025 
	C334.999908,58.666595 334.999908,116.333191 334.999939,173.999893 
	C306.500000,174.000000 278.000000,174.000000 249.000000,174.000000 
M114.438011,159.950333 
	C114.268036,159.954620 114.098068,159.958893 113.971489,159.547913 
	C113.971489,159.547913 113.910652,159.134827 113.792686,158.603561 
	C113.554207,158.117661 113.315720,157.631744 113.677444,156.787170 
	C112.236130,155.814972 110.794815,154.842789 109.353500,153.870605 
	C109.357979,154.255356 109.362457,154.640091 108.990280,155.679520 
	C109.662231,156.083939 110.334183,156.488342 110.831345,157.009674 
	C110.831345,157.009674 110.904823,157.206696 110.954826,157.718353 
	C110.947830,158.061066 110.940826,158.403778 110.117882,158.729279 
	C110.002922,159.145630 109.887955,159.561966 109.772995,159.978317 
	C111.169403,159.961823 112.565811,159.945312 113.998222,160.453354 
	C114.216545,160.701096 114.434875,160.948853 114.653198,161.196609 
	C114.794258,160.817642 114.935326,160.438675 115.344391,159.908768 
	C115.212204,159.917145 115.080009,159.925507 114.438011,159.950333 
M173.966217,14.578987 
	C173.281525,13.635036 172.596832,12.691086 172.261078,12.228196 
	C158.541901,25.950861 145.280243,39.215885 132.577194,51.922161 
	C145.469467,64.829094 158.704987,78.079666 171.500320,90.889557 
	C184.277725,78.094734 197.433044,64.921478 210.914871,51.421276 
	C198.952133,39.490391 186.709335,27.280178 173.966217,14.578987 
M59.114712,126.468651 
	C63.832623,139.388580 63.832623,139.388580 67.101135,139.547119 
	C65.215416,134.136780 63.375458,128.857758 61.536179,123.580650 
	C66.459648,121.828850 69.368965,114.619812 66.266037,106.782501 
	C63.742615,100.408890 57.010880,105.451805 51.929905,103.586044 
	C51.929905,107.859833 51.929710,111.322182 51.929943,114.784531 
	C51.930454,122.280388 51.885143,129.776901 51.992802,137.271240 
	C52.005592,138.161758 52.854370,139.040253 53.315639,139.924332 
	C53.914875,139.009064 54.765152,138.163818 55.045269,137.159546 
	C55.347080,136.077484 55.115421,134.846481 55.115444,133.680450 
	C55.115623,124.894043 55.115543,116.107643 55.115543,107.136246 
	C57.984886,107.136246 60.384418,107.136246 62.952599,107.136246 
	C62.952599,111.468796 62.952599,115.548561 62.952599,119.707497 
	C60.970924,119.902260 59.214653,120.074875 57.153275,120.277466 
	C57.802441,122.265503 58.364079,123.985481 59.114712,126.468651 
M241.135757,135.320923 
	C241.133286,133.659576 241.271820,131.980545 241.066422,130.344681 
	C240.969650,129.574112 240.212234,128.886520 239.754181,128.161331 
	C239.165558,128.913361 238.163712,129.617096 238.069107,130.426834 
	C237.826920,132.500107 237.988297,134.620544 237.988297,136.723480 
	C235.055862,136.723480 232.664917,136.723480 230.233185,136.723480 
	C230.233185,126.701981 230.233185,116.967453 230.233185,107.104843 
	C232.853561,107.104843 235.244614,107.104843 237.988617,107.104843 
	C237.988617,109.145515 237.855225,110.954033 238.051361,112.726089 
	C238.135025,113.482109 238.906784,114.161980 239.365875,114.876457 
	C239.954041,114.117455 240.949783,113.416298 241.066986,112.590446 
	C242.176605,104.772148 241.428482,103.944618 233.703888,103.947403 
	C233.039352,103.947639 232.365814,104.018539 231.711761,103.935760 
	C228.073715,103.475365 226.663406,104.920235 226.787415,108.690514 
	C227.022125,115.826553 226.854950,122.975815 226.854965,130.119583 
	C226.854996,140.754303 227.207474,141.174652 237.640167,139.790634 
	C238.938675,139.618393 239.975067,137.470337 241.135757,135.320923 
M287.353027,139.971130 
	C293.119690,140.454422 292.420654,136.941742 290.694580,132.813080 
	C289.871979,134.188370 289.049377,135.563660 288.074768,137.193130 
	C286.547394,137.117889 284.798279,137.031738 283.127563,136.949432 
	C283.127563,134.182892 283.127563,131.813202 283.127563,129.376373 
	C286.263611,129.232971 289.012299,129.107285 292.120667,128.965134 
	C292.120667,126.828476 291.928497,125.159821 292.156738,123.550812 
	C292.838623,118.744255 290.939148,117.258957 286.091156,117.278496 
	C281.253601,117.297989 278.896759,118.348228 279.570862,123.656326 
	C279.966064,126.767990 279.640198,129.970871 279.643707,133.132721 
	C279.651245,139.951492 279.652557,139.951492 287.353027,139.971130 
M209.752472,133.323776 
	C209.287064,134.622711 208.821640,135.921631 208.457886,136.936874 
	C206.425201,136.936874 204.814346,136.936874 203.069916,136.936874 
	C203.069916,134.294159 203.069916,131.898056 203.069916,129.396866 
	C206.140778,129.249222 208.914413,129.115891 212.140579,128.960785 
	C212.140579,126.321213 211.978119,124.006096 212.178864,121.722908 
	C212.475220,118.352264 210.885788,117.223167 207.783768,117.430763 
	C206.458405,117.519470 205.118347,117.511208 203.791687,117.433037 
	C200.889603,117.262039 199.530441,118.382248 199.638885,121.481224 
	C199.807541,126.301262 199.784912,131.134399 199.647797,135.956421 
	C199.560974,139.009338 200.853973,140.215164 203.818436,139.990158 
	C205.307602,139.877136 206.862442,140.204681 208.295242,139.899490 
	C209.594437,139.622772 211.728912,138.854630 211.801666,138.132538 
	C211.963516,136.526001 211.066071,134.812744 209.752472,133.323776 
M78.128098,129.213608 
	C79.933960,129.213608 81.739822,129.213608 84.111679,129.213608 
	C84.111679,125.999336 84.485497,123.153519 84.032005,120.446289 
	C83.152473,115.195740 78.809479,118.038483 75.990578,117.511009 
	C72.886040,116.930077 71.465584,118.449348 71.617783,121.751595 
	C71.816551,126.064156 71.488663,130.403717 71.753441,134.709167 
	C71.859985,136.441620 72.769684,139.471054 73.601921,139.573639 
	C76.785393,139.966141 80.185799,139.777649 83.271759,138.942963 
	C84.030853,138.737625 83.907341,135.269226 84.189590,133.300934 
	C83.660660,133.129181 83.131737,132.957443 82.602814,132.785690 
	C81.784958,134.211136 80.967110,135.636566 80.051414,137.232529 
	C78.419487,137.134003 76.680939,137.029022 73.436638,136.833145 
	C76.611542,134.303452 71.976128,130.277145 78.128098,129.213608 
M133.214157,137.003448 
	C131.603912,137.003448 129.993683,137.003448 128.265137,137.003448 
	C128.265137,132.149551 128.265137,127.745506 128.265137,122.870102 
	C130.912704,122.870102 133.316147,122.870102 135.719574,122.870102 
	C135.829376,122.267113 135.939163,121.664131 136.048965,121.061142 
	C133.452194,120.550697 130.855438,120.040245 128.248840,119.527870 
	C128.248840,115.365425 128.248840,111.269997 128.248840,107.357117 
	C130.858810,105.757332 134.761002,108.548065 137.234406,104.281281 
	C132.444626,104.281281 128.741409,104.281281 125.231453,104.281281 
	C125.231453,116.336693 125.231453,128.046631 125.231453,139.940857 
	C128.576797,139.940857 131.560547,140.035446 134.530350,139.873901 
	C135.267059,139.833847 135.958664,138.964172 136.670990,138.475815 
	C135.811493,137.985367 134.952011,137.494904 133.214157,137.003448 
M182.840439,128.528259 
	C182.840378,126.537590 182.676605,124.530464 182.874741,122.559715 
	C183.273193,118.596405 181.540054,117.049454 177.691147,117.445793 
	C176.377533,117.581055 175.038727,117.498466 173.712128,117.475807 
	C170.001862,117.412460 169.874420,119.890320 170.183792,122.559547 
	C170.239594,123.041100 170.859100,123.716965 171.325439,123.820381 
	C171.820435,123.930153 172.929260,123.484093 172.938522,123.248177 
	C173.159439,117.613716 177.016159,120.934334 179.553680,120.071434 
	C179.553680,122.500336 179.553680,124.405914 179.553680,126.272774 
	C169.397736,127.956093 168.242294,128.547409 170.184555,136.741669 
	C171.943604,144.163025 178.554260,137.125671 182.840424,140.770065 
	C182.840424,136.072128 182.840424,132.788040 182.840439,128.528259 
M259.056061,127.556267 
	C259.051910,125.227425 259.254913,122.871078 258.950836,120.582077 
	C258.811798,119.535423 257.766754,117.880768 256.972351,117.781258 
	C254.195450,117.433418 251.289322,117.322029 248.562531,117.825813 
	C247.678131,117.989197 246.981628,120.264961 246.625702,121.681664 
	C246.472473,122.291588 247.404144,123.174088 247.842941,123.932770 
	C248.539993,122.837440 249.218918,121.729774 249.948257,120.656387 
	C250.108429,120.420654 250.447891,120.306740 250.510712,120.265152 
	C252.339401,120.265152 253.960754,120.265152 255.685852,120.265152 
	C255.685852,122.510147 255.685852,124.546715 255.685852,126.547325 
	C245.462112,127.348396 244.846909,127.453896 246.347336,136.203354 
	C247.834747,144.876785 254.955582,136.670410 259.056061,141.045547 
	C259.056061,135.786713 259.056061,132.158127 259.056061,127.556267 
M89.547165,119.110146 
	C89.694824,120.763771 89.842476,122.417397 89.990128,124.071022 
	C90.559425,124.032524 91.128723,123.994034 91.698021,123.955536 
	C92.115128,122.668961 92.532234,121.382385 92.974319,120.018768 
	C95.058304,120.115456 96.826118,120.197479 98.659843,120.282562 
	C98.659843,122.540352 98.659843,124.454659 98.659843,126.327377 
	C88.587769,127.807045 87.213638,128.694153 89.241074,136.815659 
	C91.151398,144.468048 97.735542,136.876328 101.933479,140.800568 
	C101.933479,133.195160 102.076202,127.067192 101.808846,120.957176 
	C101.757530,119.784393 100.147591,117.773712 99.165054,117.716232 
	C96.111427,117.537598 93.013718,118.112442 89.547165,119.110146 
M150.090164,121.432365 
	C150.600388,122.587799 151.110611,123.743240 151.620850,124.898674 
	C154.012344,117.694969 152.346817,116.178207 144.320053,117.602631 
	C143.066833,117.825027 141.502502,119.603859 141.141525,120.947601 
	C139.863724,125.704147 144.087646,127.357155 146.667053,130.013687 
	C148.332230,131.728653 149.462067,133.963425 151.424194,136.830994 
	C147.890594,136.830994 146.142838,136.830994 144.395065,136.830994 
	C144.641113,136.500595 144.887177,136.170212 145.133224,135.839813 
	C143.964249,134.654755 142.795258,133.469681 141.626282,132.284622 
	C141.422836,133.888199 140.809174,135.586548 141.150528,137.064270 
	C141.406570,138.172623 142.755508,139.555939 143.858826,139.823593 
	C145.744583,140.281036 147.980057,140.428696 149.763031,139.816467 
	C151.164017,139.335388 152.703110,137.691437 153.134506,136.250748 
	C154.339188,132.227615 151.653107,129.959167 148.748154,127.688408 
	C146.516922,125.944283 142.764191,124.701149 144.648682,120.063492 
	C146.361832,120.250435 148.115753,120.441818 150.090164,121.432365 
M110.997551,108.667755 
	C110.997551,107.209320 110.997551,105.750877 110.997551,104.240723 
	C109.471855,104.240723 108.403732,104.240723 107.234070,104.240723 
	C107.234070,116.218224 107.234070,127.967293 107.234070,139.753433 
	C108.543175,139.753433 109.606789,139.753433 110.997559,139.753433 
	C110.997559,129.562134 110.997559,119.600365 110.997551,108.667755 
M162.238510,130.484924 
	C162.238510,127.340698 162.238510,124.196472 162.238510,121.101006 
	C163.738464,120.386681 165.021973,119.775436 167.178955,118.748222 
	C164.922333,117.768295 163.656601,117.218651 162.239624,116.603333 
	C162.239624,115.596985 162.438416,114.552315 162.187531,113.629951 
	C161.897079,112.562164 161.211121,111.601959 160.696869,110.595039 
	C160.169281,111.599289 159.542953,112.565323 159.136230,113.616348 
	C158.450134,115.389282 157.903229,117.216072 157.402969,118.706779 
	C157.987885,120.825058 158.858932,122.836792 159.041870,124.909264 
	C159.318069,128.038559 159.096832,131.210327 159.118210,134.363831 
	C159.157349,140.141037 159.951920,140.702286 167.207092,138.984894 
	C165.032440,137.678467 163.654678,136.850754 162.238388,135.999908 
	C162.238388,134.455688 162.238388,132.963135 162.238510,130.484924 
M191.954315,115.436775 
	C191.952545,114.938576 192.101761,114.375084 191.919983,113.954727 
	C191.424026,112.807976 190.788391,111.721642 190.208084,110.611366 
	C189.761627,111.678703 189.321609,112.748795 188.867279,113.812759 
	C188.071182,115.676994 187.266296,117.537460 186.856812,118.489143 
	C187.704239,120.867607 188.671997,122.474350 188.789505,124.141045 
	C189.045792,127.776451 188.743149,131.448868 188.930573,135.092697 
	C189.008133,136.600632 189.360764,138.946579 190.288879,139.367798 
	C191.857071,140.079529 193.982681,139.563126 195.873901,139.563126 
	C195.928680,139.063278 195.983444,138.563431 196.038208,138.063583 
	C194.719788,137.505798 193.401367,136.948013 192.177063,136.430054 
	C192.177063,131.040024 192.177063,125.766563 192.177063,120.668312 
	C193.637589,120.151917 194.839645,119.726898 196.838043,119.020332 
	C194.600464,117.753242 193.296387,117.014763 191.954315,115.436775 
M275.322052,118.467430 
	C271.707977,118.098976 268.093903,117.730515 264.004150,117.313568 
	C264.004150,124.309975 263.933044,130.741486 264.083649,137.167831 
	C264.105316,138.092346 265.195160,138.991837 265.790680,139.902893 
	C266.223541,139.001526 267.011322,138.107849 267.030975,137.197540 
	C267.148590,131.754059 267.089264,126.306732 267.089264,120.588356 
	C269.105499,120.588356 270.689880,120.588356 272.343842,120.588356 
	C272.675110,122.111359 272.977234,123.500267 273.279358,124.889168 
	C273.844086,124.955673 274.408844,125.022179 274.973572,125.088684 
	C275.214661,123.121056 275.455719,121.153427 275.322052,118.467430 
M183.510757,157.667206 
	C184.988220,157.667206 186.465683,157.667206 187.943130,157.667206 
	C187.884521,157.121399 187.825897,156.575577 187.767273,156.029770 
	C186.503067,156.426071 185.238876,156.822388 183.510757,157.667206 
M187.029312,153.395554 
	C187.569611,153.138168 188.109909,152.880783 188.650208,152.623413 
	C188.214340,152.186615 187.778473,151.749802 187.342606,151.313004 
	C187.090363,151.856384 186.838104,152.399780 187.029312,153.395554 
M113.747406,163.543915 
	C112.665329,163.385773 111.583260,163.227646 110.501183,163.069504 
	C110.486923,163.387711 110.472672,163.705917 110.458412,164.024124 
	C111.350327,164.024124 112.242241,164.024124 113.747406,163.543915 
M181.304581,153.610657 
	C181.385696,153.885483 181.466812,154.160309 181.547928,154.435135 
	C181.851913,154.137070 182.155899,153.838989 182.459885,153.540909 
	C182.187149,153.453934 181.914398,153.366959 181.304581,153.610657 
M239.580780,154.547852 
	C239.081451,154.495575 238.582123,154.443298 238.082794,154.391037 
	C238.408997,154.566345 238.735214,154.741669 239.580780,154.547852 
z"/>
<path fill="#20363F" opacity="1.000000" stroke="none" 
	d="
M174.216370,14.824475 
	C186.709335,27.280178 198.952133,39.490391 210.914871,51.421276 
	C197.433044,64.921478 184.277725,78.094734 171.500320,90.889557 
	C158.704987,78.079666 145.469467,64.829094 132.577194,51.922161 
	C145.280243,39.215885 158.541901,25.950861 172.261078,12.228196 
	C172.596832,12.691086 173.281525,13.635036 174.216370,14.824475 
M164.977814,81.547005 
	C166.729507,83.912849 168.481201,86.278694 169.535553,87.702705 
	C182.563034,74.662827 194.278229,62.936485 205.802200,51.401543 
	C194.613983,40.203510 182.964462,28.543772 171.741135,17.310604 
	C160.054871,29.016335 148.237396,40.853504 136.280746,52.830067 
	C145.414856,61.969120 154.945587,71.505005 164.977814,81.547005 
z"/>
<path fill="#2E4046" opacity="1.000000" stroke="none" 
	d="
M59.020214,126.087051 
	C58.364079,123.985481 57.802441,122.265503 57.153275,120.277466 
	C59.214653,120.074875 60.970924,119.902260 62.952599,119.707497 
	C62.952599,115.548561 62.952599,111.468796 62.952599,107.136246 
	C60.384418,107.136246 57.984886,107.136246 55.115543,107.136246 
	C55.115543,116.107643 55.115623,124.894043 55.115444,133.680450 
	C55.115421,134.846481 55.347080,136.077484 55.045269,137.159546 
	C54.765152,138.163818 53.914875,139.009064 53.315639,139.924332 
	C52.854370,139.040253 52.005592,138.161758 51.992802,137.271240 
	C51.885143,129.776901 51.930454,122.280388 51.929943,114.784531 
	C51.929710,111.322182 51.929905,107.859833 51.929905,103.586044 
	C57.010880,105.451805 63.742615,100.408890 66.266037,106.782501 
	C69.368965,114.619812 66.459648,121.828850 61.536179,123.580650 
	C63.375458,128.857758 65.215416,134.136780 67.101135,139.547119 
	C63.832623,139.388580 63.832623,139.388580 59.020214,126.087051 
z"/>
<path fill="#23353C" opacity="1.000000" stroke="none" 
	d="
M241.134338,135.779358 
	C239.975067,137.470337 238.938675,139.618393 237.640167,139.790634 
	C227.207474,141.174652 226.854996,140.754303 226.854965,130.119583 
	C226.854950,122.975815 227.022125,115.826553 226.787415,108.690514 
	C226.663406,104.920235 228.073715,103.475365 231.711761,103.935760 
	C232.365814,104.018539 233.039352,103.947639 233.703888,103.947403 
	C241.428482,103.944618 242.176605,104.772148 241.066986,112.590446 
	C240.949783,113.416298 239.954041,114.117455 239.365875,114.876450 
	C238.906784,114.161980 238.135025,113.482109 238.051361,112.726089 
	C237.855225,110.954033 237.988617,109.145515 237.988617,107.104843 
	C235.244614,107.104843 232.853561,107.104843 230.233185,107.104843 
	C230.233185,116.967453 230.233185,126.701981 230.233185,136.723480 
	C232.664917,136.723480 235.055862,136.723480 237.988297,136.723480 
	C237.988297,134.620544 237.826920,132.500107 238.069107,130.426834 
	C238.163712,129.617096 239.165558,128.913361 239.754181,128.161331 
	C240.212234,128.886520 240.969650,129.574112 241.066422,130.344681 
	C241.271820,131.980545 241.133286,133.659576 241.134338,135.779358 
z"/>
<path fill="#2F4047" opacity="1.000000" stroke="none" 
	d="
M286.906464,139.971252 
	C279.652557,139.951492 279.651245,139.951492 279.643707,133.132721 
	C279.640198,129.970871 279.966064,126.767990 279.570862,123.656326 
	C278.896759,118.348228 281.253601,117.297989 286.091156,117.278496 
	C290.939148,117.258957 292.838623,118.744255 292.156738,123.550812 
	C291.928497,125.159821 292.120667,126.828476 292.120667,128.965134 
	C289.012299,129.107285 286.263611,129.232971 283.127563,129.376373 
	C283.127563,131.813202 283.127563,134.182892 283.127563,136.949432 
	C284.798279,137.031738 286.547394,137.117889 288.074768,137.193130 
	C289.049377,135.563660 289.871979,134.188370 290.694580,132.813080 
	C292.420654,136.941742 293.119690,140.454422 286.906464,139.971252 
M284.591461,126.840004 
	C286.014801,126.764252 287.438141,126.688492 288.828857,126.614471 
	C288.828857,124.271935 288.828857,122.353638 288.828857,120.377708 
	C286.693970,120.377708 284.810120,120.377708 282.311615,120.377708 
	C282.829285,122.782661 283.257111,124.770271 284.591461,126.840004 
z"/>
<path fill="#2E4046" opacity="1.000000" stroke="none" 
	d="
M210.176422,133.233383 
	C211.066071,134.812744 211.963516,136.526001 211.801666,138.132538 
	C211.728912,138.854630 209.594437,139.622772 208.295242,139.899490 
	C206.862442,140.204681 205.307602,139.877136 203.818436,139.990158 
	C200.853973,140.215164 199.560974,139.009338 199.647797,135.956421 
	C199.784912,131.134399 199.807541,126.301262 199.638885,121.481224 
	C199.530441,118.382248 200.889603,117.262039 203.791687,117.433037 
	C205.118347,117.511208 206.458405,117.519470 207.783768,117.430763 
	C210.885788,117.223167 212.475220,118.352264 212.178864,121.722908 
	C211.978119,124.006096 212.140579,126.321213 212.140579,128.960785 
	C208.914413,129.115891 206.140778,129.249222 203.069916,129.396866 
	C203.069916,131.898056 203.069916,134.294159 203.069916,136.936874 
	C204.814346,136.936874 206.425201,136.936874 208.457886,136.936874 
	C208.821640,135.921631 209.287064,134.622711 210.176422,133.233383 
M202.999390,126.168915 
	C204.843430,126.454277 206.687454,126.739639 208.791992,127.065308 
	C208.791992,124.390556 208.791992,122.366364 208.791992,120.271469 
	C206.733612,120.271469 204.980316,120.271469 202.777176,120.271469 
	C202.777176,122.076607 202.777176,123.679054 202.999390,126.168915 
z"/>
<path fill="#2E4046" opacity="1.000000" stroke="none" 
	d="
M77.645691,129.216705 
	C71.976128,130.277145 76.611542,134.303452 73.436638,136.833145 
	C76.680939,137.029022 78.419487,137.134003 80.051414,137.232529 
	C80.967110,135.636566 81.784958,134.211136 82.602814,132.785690 
	C83.131737,132.957443 83.660660,133.129181 84.189590,133.300934 
	C83.907341,135.269226 84.030853,138.737625 83.271759,138.942963 
	C80.185799,139.777649 76.785393,139.966141 73.601921,139.573639 
	C72.769684,139.471054 71.859985,136.441620 71.753441,134.709167 
	C71.488663,130.403717 71.816551,126.064156 71.617783,121.751595 
	C71.465584,118.449348 72.886040,116.930077 75.990578,117.511009 
	C78.809479,118.038483 83.152473,115.195740 84.032005,120.446289 
	C84.485497,123.153519 84.111679,125.999336 84.111679,129.213608 
	C81.739822,129.213608 79.933960,129.213608 77.645691,129.216705 
M74.994720,126.169640 
	C76.838882,126.454597 78.683044,126.739555 80.785309,127.064392 
	C80.785309,124.390770 80.785309,122.364464 80.785309,120.271835 
	C78.726883,120.271835 76.973442,120.271835 74.770500,120.271835 
	C74.770500,122.077385 74.770500,123.679832 74.994720,126.169640 
z"/>
<path fill="#25383F" opacity="1.000000" stroke="none" 
	d="
M133.653336,137.003937 
	C134.952011,137.494904 135.811493,137.985367 136.670990,138.475815 
	C135.958664,138.964172 135.267059,139.833847 134.530350,139.873901 
	C131.560547,140.035446 128.576797,139.940857 125.231453,139.940857 
	C125.231453,128.046631 125.231453,116.336693 125.231453,104.281281 
	C128.741409,104.281281 132.444626,104.281281 137.234406,104.281281 
	C134.761002,108.548065 130.858810,105.757332 128.248840,107.357117 
	C128.248840,111.269997 128.248840,115.365425 128.248840,119.527870 
	C130.855438,120.040245 133.452194,120.550697 136.048965,121.061142 
	C135.939163,121.664131 135.829376,122.267113 135.719574,122.870102 
	C133.316147,122.870102 130.912704,122.870102 128.265137,122.870102 
	C128.265137,127.745506 128.265137,132.149551 128.265137,137.003448 
	C129.993683,137.003448 131.603912,137.003448 133.653336,137.003937 
z"/>
<path fill="#2C3E44" opacity="1.000000" stroke="none" 
	d="
M182.840424,129.016113 
	C182.840424,132.788040 182.840424,136.072128 182.840424,140.770065 
	C178.554260,137.125671 171.943604,144.163025 170.184555,136.741669 
	C168.242294,128.547409 169.397736,127.956093 179.553680,126.272774 
	C179.553680,124.405914 179.553680,122.500336 179.553680,120.071434 
	C177.016159,120.934334 173.159439,117.613716 172.938522,123.248177 
	C172.929260,123.484093 171.820435,123.930153 171.325439,123.820381 
	C170.859100,123.716965 170.239594,123.041100 170.183792,122.559547 
	C169.874420,119.890320 170.001862,117.412460 173.712128,117.475807 
	C175.038727,117.498466 176.377533,117.581055 177.691147,117.445793 
	C181.540054,117.049454 183.273193,118.596405 182.874741,122.559715 
	C182.676605,124.530464 182.840378,126.537590 182.840424,129.016113 
M172.962784,134.454819 
	C173.785568,139.742691 177.254074,136.043747 179.425125,136.820175 
	C179.425125,134.016205 179.425125,131.667664 179.425125,129.400040 
	C177.121582,129.400040 175.218170,129.400040 172.961807,129.400040 
	C172.961807,130.960236 172.961807,132.246552 172.962784,134.454819 
z"/>
<path fill="#2A3C42" opacity="1.000000" stroke="none" 
	d="
M259.056061,128.042908 
	C259.056061,132.158127 259.056061,135.786713 259.056061,141.045547 
	C254.955582,136.670410 247.834747,144.876785 246.347336,136.203354 
	C244.846909,127.453896 245.462112,127.348396 255.685852,126.547325 
	C255.685852,124.546715 255.685852,122.510147 255.685852,120.265152 
	C253.960754,120.265152 252.339401,120.265152 250.510712,120.265152 
	C250.447891,120.306740 250.108429,120.420654 249.948257,120.656387 
	C249.218918,121.729774 248.539993,122.837440 247.842926,123.932770 
	C247.404144,123.174088 246.472473,122.291588 246.625702,121.681664 
	C246.981628,120.264961 247.678131,117.989197 248.562531,117.825813 
	C251.289322,117.322029 254.195450,117.433418 256.972351,117.781258 
	C257.766754,117.880768 258.811798,119.535423 258.950836,120.582077 
	C259.254913,122.871078 259.051910,125.227425 259.056061,128.042908 
M250.818756,129.142914 
	C250.106033,131.626755 249.393295,134.110596 248.600723,136.872650 
	C251.778336,136.872650 253.701996,136.872650 255.789993,136.872650 
	C255.789993,134.261154 255.789993,131.884018 255.789993,129.120895 
	C254.260376,129.120895 252.981644,129.120895 250.818756,129.142914 
z"/>
<path fill="#293B42" opacity="1.000000" stroke="none" 
	d="
M89.740143,118.752563 
	C93.013718,118.112442 96.111427,117.537598 99.165054,117.716232 
	C100.147591,117.773712 101.757530,119.784393 101.808846,120.957176 
	C102.076202,127.067192 101.933479,133.195160 101.933479,140.800568 
	C97.735542,136.876328 91.151398,144.468048 89.241074,136.815659 
	C87.213638,128.694153 88.587769,127.807045 98.659843,126.327377 
	C98.659843,124.454659 98.659843,122.540352 98.659843,120.282562 
	C96.826118,120.197479 95.058304,120.115456 92.974319,120.018768 
	C92.532234,121.382385 92.115128,122.668961 91.698021,123.955536 
	C91.128723,123.994034 90.559425,124.032524 89.990128,124.071022 
	C89.842476,122.417397 89.694824,120.763771 89.740143,118.752563 
M92.185562,129.898911 
	C92.185562,132.169205 92.185562,134.439499 92.185562,136.790741 
	C94.521774,136.790741 96.564507,136.790741 98.573570,136.790741 
	C98.573570,134.098969 98.573570,131.722382 98.573570,129.253006 
	C96.420433,129.253006 94.614990,129.253006 92.185562,129.898911 
z"/>
<path fill="#2E4046" opacity="1.000000" stroke="none" 
	d="
M149.979919,121.032791 
	C148.115753,120.441818 146.361832,120.250435 144.648682,120.063492 
	C142.764191,124.701149 146.516922,125.944283 148.748154,127.688408 
	C151.653107,129.959167 154.339188,132.227615 153.134506,136.250748 
	C152.703110,137.691437 151.164017,139.335388 149.763031,139.816467 
	C147.980057,140.428696 145.744583,140.281036 143.858826,139.823593 
	C142.755508,139.555939 141.406570,138.172623 141.150528,137.064270 
	C140.809174,135.586548 141.422836,133.888199 141.626282,132.284622 
	C142.795258,133.469681 143.964249,134.654755 145.133224,135.839813 
	C144.887177,136.170212 144.641113,136.500595 144.395065,136.830994 
	C146.142838,136.830994 147.890594,136.830994 151.424194,136.830994 
	C149.462067,133.963425 148.332230,131.728653 146.667053,130.013687 
	C144.087646,127.357155 139.863724,125.704147 141.141525,120.947601 
	C141.502502,119.603859 143.066833,117.825027 144.320053,117.602631 
	C152.346817,116.178207 154.012344,117.694969 151.620850,124.898674 
	C151.110611,123.743240 150.600388,122.587799 149.979919,121.032791 
z"/>
<path fill="#1D3037" opacity="1.000000" stroke="none" 
	d="
M110.997559,109.153175 
	C110.997559,119.600365 110.997559,129.562134 110.997559,139.753433 
	C109.606789,139.753433 108.543175,139.753433 107.234070,139.753433 
	C107.234070,127.967293 107.234070,116.218224 107.234070,104.240723 
	C108.403732,104.240723 109.471855,104.240723 110.997551,104.240723 
	C110.997551,105.750877 110.997551,107.209320 110.997559,109.153175 
z"/>
<path fill="#2E4046" opacity="1.000000" stroke="none" 
	d="
M162.238449,130.977753 
	C162.238388,132.963135 162.238388,134.455688 162.238388,135.999908 
	C163.654678,136.850754 165.032440,137.678467 167.207092,138.984894 
	C159.951920,140.702286 159.157349,140.141037 159.118210,134.363831 
	C159.096832,131.210327 159.318069,128.038559 159.041870,124.909264 
	C158.858932,122.836792 157.987885,120.825058 157.402969,118.706779 
	C157.903229,117.216072 158.450134,115.389282 159.136230,113.616348 
	C159.542953,112.565323 160.169281,111.599289 160.696869,110.595039 
	C161.211121,111.601959 161.897079,112.562164 162.187531,113.629951 
	C162.438416,114.552315 162.239624,115.596985 162.239624,116.603333 
	C163.656601,117.218651 164.922333,117.768295 167.178955,118.748222 
	C165.021973,119.775436 163.738464,120.386681 162.238510,121.101006 
	C162.238510,124.196472 162.238510,127.340698 162.238449,130.977753 
z"/>
<path fill="#2B3D43" opacity="1.000000" stroke="none" 
	d="
M191.973297,115.856529 
	C193.296387,117.014763 194.600464,117.753242 196.838043,119.020332 
	C194.839645,119.726898 193.637589,120.151917 192.177063,120.668312 
	C192.177063,125.766563 192.177063,131.040024 192.177063,136.430054 
	C193.401367,136.948013 194.719788,137.505798 196.038208,138.063583 
	C195.983444,138.563431 195.928680,139.063278 195.873901,139.563126 
	C193.982681,139.563126 191.857071,140.079529 190.288879,139.367798 
	C189.360764,138.946579 189.008133,136.600632 188.930573,135.092697 
	C188.743149,131.448868 189.045792,127.776451 188.789505,124.141045 
	C188.671997,122.474350 187.704239,120.867607 186.856812,118.489143 
	C187.266296,117.537460 188.071182,115.676994 188.867279,113.812759 
	C189.321609,112.748795 189.761627,111.678703 190.208084,110.611366 
	C190.788391,111.721642 191.424026,112.807976 191.919983,113.954727 
	C192.101761,114.375084 191.952545,114.938576 191.973297,115.856529 
z"/>
<path fill="#293B41" opacity="1.000000" stroke="none" 
	d="
M275.509430,118.826614 
	C275.455719,121.153427 275.214661,123.121056 274.973572,125.088684 
	C274.408844,125.022179 273.844086,124.955673 273.279358,124.889168 
	C272.977234,123.500267 272.675110,122.111359 272.343842,120.588356 
	C270.689880,120.588356 269.105499,120.588356 267.089264,120.588356 
	C267.089264,126.306732 267.148590,131.754059 267.030975,137.197540 
	C267.011322,138.107849 266.223541,139.001526 265.790680,139.902893 
	C265.195160,138.991837 264.105316,138.092346 264.083649,137.167831 
	C263.933044,130.741486 264.004150,124.309975 264.004150,117.313568 
	C268.093903,117.730515 271.707977,118.098976 275.509430,118.826614 
z"/>
<path fill="#6D6D6D" opacity="1.000000" stroke="none" 
	d="
M109.366928,155.024841 
	C109.362457,154.640091 109.357979,154.255356 109.353500,153.870605 
	C110.794815,154.842789 112.236130,155.814972 113.014908,156.915314 
	C111.869858,157.097885 111.387337,157.152298 110.904823,157.206696 
	C110.904823,157.206696 110.831345,157.009674 110.793182,156.734848 
	C110.292328,155.981628 109.829628,155.503235 109.366928,155.024841 
z"/>
<path fill="#F1F1F1" opacity="1.000000" stroke="none" 
	d="
M183.742706,157.442947 
	C185.238876,156.822388 186.503067,156.426071 187.767273,156.029770 
	C187.825897,156.575577 187.884521,157.121399 187.943130,157.667206 
	C186.465683,157.667206 184.988220,157.667206 183.742706,157.442947 
z"/>
<path fill="#F1F1F1" opacity="1.000000" stroke="none" 
	d="
M186.807587,153.169357 
	C186.838104,152.399780 187.090363,151.856384 187.342606,151.313004 
	C187.778473,151.749802 188.214340,152.186615 188.650208,152.623413 
	C188.109909,152.880783 187.569611,153.138168 186.807587,153.169357 
z"/>
<path fill="#D4D4D4" opacity="1.000000" stroke="none" 
	d="
M110.929825,157.462524 
	C111.387337,157.152298 111.869858,157.097885 112.714806,157.094666 
	C113.315720,157.631744 113.554207,158.117661 113.475372,158.833237 
	C112.416656,158.957443 111.675240,158.851959 110.933830,158.746490 
	C110.940826,158.403778 110.947830,158.061066 110.929825,157.462524 
z"/>
<path fill="#5A5A5A" opacity="1.000000" stroke="none" 
	d="
M110.525856,158.737885 
	C111.675240,158.851959 112.416656,158.957443 113.534363,159.098877 
	C113.910652,159.134827 113.971489,159.547913 113.983940,159.772308 
	C113.996391,159.996689 113.962219,159.928802 113.962219,159.928802 
	C112.565811,159.945312 111.169403,159.961823 109.772995,159.978317 
	C109.887955,159.561966 110.002922,159.145630 110.525856,158.737885 
z"/>
<path fill="#5A5A5A" opacity="1.000000" stroke="none" 
	d="
M113.440781,163.784027 
	C112.242241,164.024124 111.350327,164.024124 110.458412,164.024124 
	C110.472672,163.705917 110.486923,163.387711 110.501183,163.069504 
	C111.583260,163.227646 112.665329,163.385773 113.440781,163.784027 
z"/>
<path fill="#F1F1F1" opacity="1.000000" stroke="none" 
	d="
M181.473114,153.445312 
	C181.914398,153.366959 182.187149,153.453934 182.459885,153.540909 
	C182.155899,153.838989 181.851913,154.137070 181.547928,154.435135 
	C181.466812,154.160309 181.385696,153.885483 181.473114,153.445312 
z"/>
<path fill="#393939" opacity="1.000000" stroke="none" 
	d="
M109.178604,155.352173 
	C109.829628,155.503235 110.292328,155.981628 110.880585,156.676392 
	C110.334183,156.488342 109.662231,156.083939 109.178604,155.352173 
z"/>
<path fill="#5A5A5A" opacity="1.000000" stroke="none" 
	d="
M239.321106,154.732422 
	C238.735214,154.741669 238.408997,154.566345 238.082794,154.391037 
	C238.582123,154.443298 239.081451,154.495575 239.321106,154.732422 
z"/>
<path fill="#F4F5F5" opacity="1.000000" stroke="none" 
	d="
M113.962250,159.979935 
	C114.098068,159.958893 114.268036,159.954620 114.723106,159.975555 
	C115.008202,160.000793 115.076393,160.059708 115.076393,160.059708 
	C114.935326,160.438675 114.794258,160.817642 114.653198,161.196609 
	C114.434875,160.948853 114.216545,160.701096 113.980225,160.191071 
	C113.962219,159.928802 113.996391,159.996689 113.962250,159.979935 
z"/>
<path fill="#F4F5F5" opacity="1.000000" stroke="none" 
	d="
M114.978012,159.967346 
	C115.080009,159.925507 115.212204,159.917145 115.210388,159.984238 
	C115.076393,160.059708 115.008202,160.000793 114.978012,159.967346 
z"/>
<path fill="#FAFBFB" opacity="1.000000" stroke="none" 
	d="
M164.727051,81.293945 
	C154.945587,71.505005 145.414856,61.969120 136.280746,52.830067 
	C148.237396,40.853504 160.054871,29.016335 171.741135,17.310604 
	C182.964462,28.543772 194.613983,40.203510 205.802200,51.401543 
	C194.278229,62.936485 182.563034,74.662827 169.535553,87.702705 
	C168.481201,86.278694 166.729507,83.912849 164.727051,81.293945 
M180.931717,57.545982 
	C177.908524,54.294289 174.885330,51.042595 171.927505,47.861210 
	C161.366318,56.172806 157.556686,61.078228 160.371277,64.809166 
	C163.937897,60.459057 167.375687,56.266083 171.207108,51.593021 
	C173.970963,54.615345 175.921097,56.877758 178.009354,59.004578 
	C182.494400,63.572460 182.523544,63.543850 185.035721,61.382984 
	C183.820740,60.259373 182.623337,59.152004 180.931717,57.545982 
z"/>
<path fill="#F6F7F7" opacity="1.000000" stroke="none" 
	d="
M284.138214,126.798943 
	C283.257111,124.770271 282.829285,122.782661 282.311615,120.377708 
	C284.810120,120.377708 286.693970,120.377708 288.828857,120.377708 
	C288.828857,122.353638 288.828857,124.271935 288.828857,126.614471 
	C287.438141,126.688492 286.014801,126.764252 284.138214,126.798943 
z"/>
<path fill="#F6F7F7" opacity="1.000000" stroke="none" 
	d="
M202.888275,125.725204 
	C202.777176,123.679054 202.777176,122.076607 202.777176,120.271469 
	C204.980316,120.271469 206.733612,120.271469 208.791992,120.271469 
	C208.791992,122.366364 208.791992,124.390556 208.791992,127.065308 
	C206.687454,126.739639 204.843430,126.454277 202.888275,125.725204 
z"/>
<path fill="#F6F7F7" opacity="1.000000" stroke="none" 
	d="
M74.882614,125.725960 
	C74.770500,123.679832 74.770500,122.077385 74.770500,120.271835 
	C76.973442,120.271835 78.726883,120.271835 80.785309,120.271835 
	C80.785309,122.364464 80.785309,124.390770 80.785309,127.064392 
	C78.683044,126.739555 76.838882,126.454597 74.882614,125.725960 
z"/>
<path fill="#F1F2F3" opacity="1.000000" stroke="none" 
	d="
M172.962296,133.993835 
	C172.961807,132.246552 172.961807,130.960236 172.961807,129.400040 
	C175.218170,129.400040 177.121582,129.400040 179.425125,129.400040 
	C179.425125,131.667664 179.425125,134.016205 179.425125,136.820175 
	C177.254074,136.043747 173.785568,139.742691 172.962296,133.993835 
z"/>
<path fill="#F1F2F3" opacity="1.000000" stroke="none" 
	d="
M251.260834,129.131897 
	C252.981644,129.120895 254.260376,129.120895 255.789993,129.120895 
	C255.789993,131.884018 255.789993,134.261154 255.789993,136.872650 
	C253.701996,136.872650 251.778336,136.872650 248.600723,136.872650 
	C249.393295,134.110596 250.106033,131.626755 251.260834,129.131897 
z"/>
<path fill="#F4F5F5" opacity="1.000000" stroke="none" 
	d="
M92.497559,129.575958 
	C94.614990,129.253006 96.420433,129.253006 98.573570,129.253006 
	C98.573570,131.722382 98.573570,134.098969 98.573570,136.790741 
	C96.564507,136.790741 94.521774,136.790741 92.185562,136.790741 
	C92.185562,134.439499 92.185562,132.169205 92.497559,129.575958 
z"/>
<path fill="#213740" opacity="1.000000" stroke="none" 
	d="
M181.178833,57.795311 
	C182.623337,59.152004 183.820740,60.259373 185.035721,61.382984 
	C182.523544,63.543850 182.494400,63.572460 178.009354,59.004578 
	C175.921097,56.877758 173.970963,54.615345 171.207108,51.593021 
	C167.375687,56.266083 163.937897,60.459057 160.371277,64.809166 
	C157.556686,61.078228 161.366318,56.172806 171.927505,47.861210 
	C174.885330,51.042595 177.908524,54.294289 181.178833,57.795311 
z"/>
</svg>